<mxfile host="app.diagrams.net" agent="Mozilla/5.0 (Windows NT 10.0; Win64; x64) AppleWebKit/537.36 (KHTML, like Gecko) Chrome/130.0.0.0 Safari/537.36" version="24.8.3">
  <diagram name="Page-1" id="hEEilMrro-7LVI1v8us6">
    <mxGraphModel dx="1434" dy="738" grid="1" gridSize="10" guides="1" tooltips="1" connect="1" arrows="1" fold="1" page="1" pageScale="1" pageWidth="850" pageHeight="1100" math="0" shadow="0">
      <root>
        <mxCell id="0" />
        <mxCell id="1" parent="0" />
        <mxCell id="TCfYSCtMu1qu-9Lroh7u-6" style="rounded=0;orthogonalLoop=1;jettySize=auto;html=1;entryX=0;entryY=0.75;entryDx=0;entryDy=0;endArrow=none;endFill=0;" edge="1" parent="1" source="TCfYSCtMu1qu-9Lroh7u-1" target="TCfYSCtMu1qu-9Lroh7u-2">
          <mxGeometry relative="1" as="geometry" />
        </mxCell>
        <mxCell id="TCfYSCtMu1qu-9Lroh7u-1" value="naslov" style="ellipse;whiteSpace=wrap;html=1;align=center;" vertex="1" parent="1">
          <mxGeometry x="270" y="70" width="100" height="40" as="geometry" />
        </mxCell>
        <mxCell id="TCfYSCtMu1qu-9Lroh7u-10" style="edgeStyle=none;shape=link;rounded=0;orthogonalLoop=1;jettySize=auto;html=1;strokeColor=default;align=center;verticalAlign=middle;fontFamily=Helvetica;fontSize=11;fontColor=default;labelBackgroundColor=default;endArrow=none;endFill=0;" edge="1" parent="1" source="TCfYSCtMu1qu-9Lroh7u-2" target="TCfYSCtMu1qu-9Lroh7u-11">
          <mxGeometry relative="1" as="geometry">
            <mxPoint x="425" y="240" as="targetPoint" />
          </mxGeometry>
        </mxCell>
        <mxCell id="TCfYSCtMu1qu-9Lroh7u-2" value="Stavka" style="whiteSpace=wrap;html=1;align=center;" vertex="1" parent="1">
          <mxGeometry x="375" y="160" width="100" height="40" as="geometry" />
        </mxCell>
        <mxCell id="TCfYSCtMu1qu-9Lroh7u-7" value="" style="edgeStyle=none;shape=connector;rounded=0;orthogonalLoop=1;jettySize=auto;html=1;strokeColor=default;align=center;verticalAlign=middle;fontFamily=Helvetica;fontSize=11;fontColor=default;labelBackgroundColor=default;endArrow=none;endFill=0;" edge="1" parent="1" source="TCfYSCtMu1qu-9Lroh7u-3" target="TCfYSCtMu1qu-9Lroh7u-2">
          <mxGeometry relative="1" as="geometry" />
        </mxCell>
        <mxCell id="TCfYSCtMu1qu-9Lroh7u-3" value="&lt;u&gt;inventaren_broj&lt;/u&gt;" style="ellipse;whiteSpace=wrap;html=1;align=center;" vertex="1" parent="1">
          <mxGeometry x="380" y="70" width="100" height="40" as="geometry" />
        </mxCell>
        <mxCell id="TCfYSCtMu1qu-9Lroh7u-8" style="edgeStyle=none;shape=connector;rounded=0;orthogonalLoop=1;jettySize=auto;html=1;exitX=0;exitY=1;exitDx=0;exitDy=0;strokeColor=default;align=center;verticalAlign=middle;fontFamily=Helvetica;fontSize=11;fontColor=default;labelBackgroundColor=default;endArrow=none;endFill=0;" edge="1" parent="1" source="TCfYSCtMu1qu-9Lroh7u-4" target="TCfYSCtMu1qu-9Lroh7u-2">
          <mxGeometry relative="1" as="geometry" />
        </mxCell>
        <mxCell id="TCfYSCtMu1qu-9Lroh7u-4" value="broj_na_primeroci" style="ellipse;whiteSpace=wrap;html=1;align=center;" vertex="1" parent="1">
          <mxGeometry x="500" y="70" width="100" height="40" as="geometry" />
        </mxCell>
        <mxCell id="TCfYSCtMu1qu-9Lroh7u-11" value="d" style="ellipse;whiteSpace=wrap;html=1;aspect=fixed;fontFamily=Helvetica;fontSize=11;fontColor=default;labelBackgroundColor=default;" vertex="1" parent="1">
          <mxGeometry x="403" y="250" width="45" height="45" as="geometry" />
        </mxCell>
        <mxCell id="TCfYSCtMu1qu-9Lroh7u-14" style="edgeStyle=none;shape=connector;rounded=0;orthogonalLoop=1;jettySize=auto;html=1;exitX=0.5;exitY=0;exitDx=0;exitDy=0;entryX=0;entryY=1;entryDx=0;entryDy=0;strokeColor=default;align=center;verticalAlign=middle;fontFamily=Helvetica;fontSize=11;fontColor=default;labelBackgroundColor=default;endArrow=none;endFill=0;" edge="1" parent="1">
          <mxGeometry relative="1" as="geometry">
            <mxPoint x="293.41" y="340" as="sourcePoint" />
            <mxPoint x="403.00009742330275" y="288.4099025766973" as="targetPoint" />
          </mxGeometry>
        </mxCell>
        <mxCell id="TCfYSCtMu1qu-9Lroh7u-12" value="Kniga" style="whiteSpace=wrap;html=1;align=center;" vertex="1" parent="1">
          <mxGeometry x="250" y="340" width="100" height="40" as="geometry" />
        </mxCell>
        <mxCell id="TCfYSCtMu1qu-9Lroh7u-15" style="edgeStyle=none;shape=connector;rounded=0;orthogonalLoop=1;jettySize=auto;html=1;exitX=0.25;exitY=0;exitDx=0;exitDy=0;entryX=1;entryY=1;entryDx=0;entryDy=0;strokeColor=default;align=center;verticalAlign=middle;fontFamily=Helvetica;fontSize=11;fontColor=default;labelBackgroundColor=default;endArrow=none;endFill=0;" edge="1" parent="1" source="TCfYSCtMu1qu-9Lroh7u-13" target="TCfYSCtMu1qu-9Lroh7u-11">
          <mxGeometry relative="1" as="geometry" />
        </mxCell>
        <mxCell id="TCfYSCtMu1qu-9Lroh7u-13" value="Spisanie" style="whiteSpace=wrap;html=1;align=center;" vertex="1" parent="1">
          <mxGeometry x="490" y="340" width="100" height="40" as="geometry" />
        </mxCell>
        <mxCell id="TCfYSCtMu1qu-9Lroh7u-16" value="" style="shape=requiredInterface;html=1;verticalLabelPosition=bottom;sketch=0;fontFamily=Helvetica;fontSize=11;fontColor=default;labelBackgroundColor=default;rotation=135;" vertex="1" parent="1">
          <mxGeometry x="349.65000000000003" y="295" width="25.35" height="35.01" as="geometry" />
        </mxCell>
        <mxCell id="TCfYSCtMu1qu-9Lroh7u-19" value="" style="shape=requiredInterface;html=1;verticalLabelPosition=bottom;sketch=0;fontFamily=Helvetica;fontSize=11;fontColor=default;labelBackgroundColor=default;rotation=-45;direction=south;" vertex="1" parent="1">
          <mxGeometry x="454.99" y="295" width="35.01" height="25.35" as="geometry" />
        </mxCell>
        <mxCell id="TCfYSCtMu1qu-9Lroh7u-21" value="broj_na_stranici" style="ellipse;whiteSpace=wrap;html=1;align=center;" vertex="1" parent="1">
          <mxGeometry x="130" y="410" width="100" height="40" as="geometry" />
        </mxCell>
        <mxCell id="TCfYSCtMu1qu-9Lroh7u-22" style="edgeStyle=none;shape=connector;rounded=0;orthogonalLoop=1;jettySize=auto;html=1;exitX=1;exitY=0;exitDx=0;exitDy=0;entryX=0.14;entryY=0.975;entryDx=0;entryDy=0;entryPerimeter=0;strokeColor=default;align=center;verticalAlign=middle;fontFamily=Helvetica;fontSize=11;fontColor=default;labelBackgroundColor=default;endArrow=none;endFill=0;" edge="1" parent="1" source="TCfYSCtMu1qu-9Lroh7u-21" target="TCfYSCtMu1qu-9Lroh7u-12">
          <mxGeometry relative="1" as="geometry" />
        </mxCell>
        <mxCell id="TCfYSCtMu1qu-9Lroh7u-29" style="edgeStyle=none;shape=connector;rounded=0;orthogonalLoop=1;jettySize=auto;html=1;exitX=0.5;exitY=0;exitDx=0;exitDy=0;strokeColor=default;align=center;verticalAlign=middle;fontFamily=Helvetica;fontSize=11;fontColor=default;labelBackgroundColor=default;endArrow=none;endFill=0;" edge="1" parent="1" source="TCfYSCtMu1qu-9Lroh7u-28" target="TCfYSCtMu1qu-9Lroh7u-13">
          <mxGeometry relative="1" as="geometry" />
        </mxCell>
        <mxCell id="TCfYSCtMu1qu-9Lroh7u-28" value="broj_spisanie" style="ellipse;whiteSpace=wrap;html=1;align=center;" vertex="1" parent="1">
          <mxGeometry x="430" y="430" width="100" height="40" as="geometry" />
        </mxCell>
        <mxCell id="TCfYSCtMu1qu-9Lroh7u-31" style="edgeStyle=none;shape=link;rounded=0;orthogonalLoop=1;jettySize=auto;html=1;strokeColor=default;align=center;verticalAlign=middle;fontFamily=Helvetica;fontSize=11;fontColor=default;labelBackgroundColor=default;endArrow=none;endFill=0;" edge="1" parent="1" source="TCfYSCtMu1qu-9Lroh7u-30" target="TCfYSCtMu1qu-9Lroh7u-12">
          <mxGeometry relative="1" as="geometry" />
        </mxCell>
        <mxCell id="TCfYSCtMu1qu-9Lroh7u-30" value="e na" style="shape=rhombus;perimeter=rhombusPerimeter;whiteSpace=wrap;html=1;align=center;fontFamily=Helvetica;fontSize=11;fontColor=default;labelBackgroundColor=default;" vertex="1" parent="1">
          <mxGeometry x="240" y="450" width="120" height="60" as="geometry" />
        </mxCell>
        <mxCell id="TCfYSCtMu1qu-9Lroh7u-39" style="edgeStyle=none;shape=link;rounded=0;orthogonalLoop=1;jettySize=auto;html=1;exitX=0.5;exitY=0;exitDx=0;exitDy=0;entryX=0.5;entryY=1;entryDx=0;entryDy=0;strokeColor=default;align=center;verticalAlign=middle;fontFamily=Helvetica;fontSize=11;fontColor=default;labelBackgroundColor=default;endArrow=none;endFill=0;" edge="1" parent="1" source="TCfYSCtMu1qu-9Lroh7u-32" target="TCfYSCtMu1qu-9Lroh7u-30">
          <mxGeometry relative="1" as="geometry" />
        </mxCell>
        <mxCell id="TCfYSCtMu1qu-9Lroh7u-32" value="Aftor" style="whiteSpace=wrap;html=1;align=center;" vertex="1" parent="1">
          <mxGeometry x="249.65" y="540" width="100" height="40" as="geometry" />
        </mxCell>
        <mxCell id="TCfYSCtMu1qu-9Lroh7u-33" value="ime" style="ellipse;whiteSpace=wrap;html=1;align=center;fontFamily=Helvetica;fontSize=11;fontColor=default;labelBackgroundColor=default;" vertex="1" parent="1">
          <mxGeometry x="150" y="600" width="100" height="40" as="geometry" />
        </mxCell>
        <mxCell id="TCfYSCtMu1qu-9Lroh7u-37" style="edgeStyle=none;shape=connector;rounded=0;orthogonalLoop=1;jettySize=auto;html=1;exitX=0.5;exitY=0;exitDx=0;exitDy=0;strokeColor=default;align=center;verticalAlign=middle;fontFamily=Helvetica;fontSize=11;fontColor=default;labelBackgroundColor=default;endArrow=none;endFill=0;" edge="1" parent="1" source="TCfYSCtMu1qu-9Lroh7u-34" target="TCfYSCtMu1qu-9Lroh7u-32">
          <mxGeometry relative="1" as="geometry" />
        </mxCell>
        <mxCell id="TCfYSCtMu1qu-9Lroh7u-34" value="prezime" style="ellipse;whiteSpace=wrap;html=1;align=center;fontFamily=Helvetica;fontSize=11;fontColor=default;labelBackgroundColor=default;" vertex="1" parent="1">
          <mxGeometry x="260" y="600" width="100" height="40" as="geometry" />
        </mxCell>
        <mxCell id="TCfYSCtMu1qu-9Lroh7u-38" style="edgeStyle=none;shape=connector;rounded=0;orthogonalLoop=1;jettySize=auto;html=1;exitX=0;exitY=0;exitDx=0;exitDy=0;strokeColor=default;align=center;verticalAlign=middle;fontFamily=Helvetica;fontSize=11;fontColor=default;labelBackgroundColor=default;endArrow=none;endFill=0;" edge="1" parent="1" source="TCfYSCtMu1qu-9Lroh7u-35" target="TCfYSCtMu1qu-9Lroh7u-32">
          <mxGeometry relative="1" as="geometry" />
        </mxCell>
        <mxCell id="TCfYSCtMu1qu-9Lroh7u-35" value="godina_na_ragjanje" style="ellipse;whiteSpace=wrap;html=1;align=center;fontFamily=Helvetica;fontSize=11;fontColor=default;labelBackgroundColor=default;" vertex="1" parent="1">
          <mxGeometry x="380" y="600" width="100" height="40" as="geometry" />
        </mxCell>
        <mxCell id="TCfYSCtMu1qu-9Lroh7u-36" style="edgeStyle=none;shape=connector;rounded=0;orthogonalLoop=1;jettySize=auto;html=1;exitX=1;exitY=0;exitDx=0;exitDy=0;entryX=0.153;entryY=0.95;entryDx=0;entryDy=0;entryPerimeter=0;strokeColor=default;align=center;verticalAlign=middle;fontFamily=Helvetica;fontSize=11;fontColor=default;labelBackgroundColor=default;endArrow=none;endFill=0;" edge="1" parent="1" source="TCfYSCtMu1qu-9Lroh7u-33" target="TCfYSCtMu1qu-9Lroh7u-32">
          <mxGeometry relative="1" as="geometry" />
        </mxCell>
        <mxCell id="TCfYSCtMu1qu-9Lroh7u-40" value="M" style="text;html=1;align=center;verticalAlign=middle;resizable=0;points=[];autosize=1;strokeColor=none;fillColor=none;fontFamily=Helvetica;fontSize=11;fontColor=default;labelBackgroundColor=default;" vertex="1" parent="1">
          <mxGeometry x="295" y="418" width="30" height="30" as="geometry" />
        </mxCell>
        <mxCell id="TCfYSCtMu1qu-9Lroh7u-41" value="N" style="text;html=1;align=center;verticalAlign=middle;resizable=0;points=[];autosize=1;strokeColor=none;fillColor=none;fontFamily=Helvetica;fontSize=11;fontColor=default;labelBackgroundColor=default;" vertex="1" parent="1">
          <mxGeometry x="295" y="510" width="30" height="30" as="geometry" />
        </mxCell>
        <mxCell id="TCfYSCtMu1qu-9Lroh7u-42" value="Clen" style="whiteSpace=wrap;html=1;align=center;" vertex="1" parent="1">
          <mxGeometry x="760" y="250" width="100" height="40" as="geometry" />
        </mxCell>
        <mxCell id="TCfYSCtMu1qu-9Lroh7u-49" style="edgeStyle=none;shape=connector;rounded=0;orthogonalLoop=1;jettySize=auto;html=1;exitX=0.5;exitY=1;exitDx=0;exitDy=0;strokeColor=default;align=center;verticalAlign=middle;fontFamily=Helvetica;fontSize=11;fontColor=default;labelBackgroundColor=default;endArrow=none;endFill=0;" edge="1" parent="1" source="TCfYSCtMu1qu-9Lroh7u-43" target="TCfYSCtMu1qu-9Lroh7u-42">
          <mxGeometry relative="1" as="geometry" />
        </mxCell>
        <mxCell id="TCfYSCtMu1qu-9Lroh7u-43" value="ime" style="ellipse;whiteSpace=wrap;html=1;align=center;" vertex="1" parent="1">
          <mxGeometry x="810" y="170" width="100" height="40" as="geometry" />
        </mxCell>
        <mxCell id="TCfYSCtMu1qu-9Lroh7u-50" style="edgeStyle=none;shape=connector;rounded=0;orthogonalLoop=1;jettySize=auto;html=1;exitX=0;exitY=1;exitDx=0;exitDy=0;entryX=1;entryY=0;entryDx=0;entryDy=0;strokeColor=default;align=center;verticalAlign=middle;fontFamily=Helvetica;fontSize=11;fontColor=default;labelBackgroundColor=default;endArrow=none;endFill=0;" edge="1" parent="1" source="TCfYSCtMu1qu-9Lroh7u-44" target="TCfYSCtMu1qu-9Lroh7u-42">
          <mxGeometry relative="1" as="geometry" />
        </mxCell>
        <mxCell id="TCfYSCtMu1qu-9Lroh7u-44" value="prezime" style="ellipse;whiteSpace=wrap;html=1;align=center;" vertex="1" parent="1">
          <mxGeometry x="930" y="180" width="100" height="40" as="geometry" />
        </mxCell>
        <mxCell id="TCfYSCtMu1qu-9Lroh7u-51" style="edgeStyle=none;shape=connector;rounded=0;orthogonalLoop=1;jettySize=auto;html=1;exitX=0;exitY=0.5;exitDx=0;exitDy=0;entryX=1;entryY=0.5;entryDx=0;entryDy=0;strokeColor=default;align=center;verticalAlign=middle;fontFamily=Helvetica;fontSize=11;fontColor=default;labelBackgroundColor=default;endArrow=none;endFill=0;" edge="1" parent="1" source="TCfYSCtMu1qu-9Lroh7u-45" target="TCfYSCtMu1qu-9Lroh7u-42">
          <mxGeometry relative="1" as="geometry" />
        </mxCell>
        <mxCell id="TCfYSCtMu1qu-9Lroh7u-45" value="adresa" style="ellipse;whiteSpace=wrap;html=1;align=center;" vertex="1" parent="1">
          <mxGeometry x="1020" y="220" width="100" height="40" as="geometry" />
        </mxCell>
        <mxCell id="TCfYSCtMu1qu-9Lroh7u-48" style="edgeStyle=none;shape=connector;rounded=0;orthogonalLoop=1;jettySize=auto;html=1;exitX=0.5;exitY=1;exitDx=0;exitDy=0;strokeColor=default;align=center;verticalAlign=middle;fontFamily=Helvetica;fontSize=11;fontColor=default;labelBackgroundColor=default;endArrow=none;endFill=0;" edge="1" parent="1" source="TCfYSCtMu1qu-9Lroh7u-46" target="TCfYSCtMu1qu-9Lroh7u-42">
          <mxGeometry relative="1" as="geometry" />
        </mxCell>
        <mxCell id="TCfYSCtMu1qu-9Lroh7u-46" value="&lt;u&gt;clenski_broj&lt;/u&gt;" style="ellipse;whiteSpace=wrap;html=1;align=center;" vertex="1" parent="1">
          <mxGeometry x="690" y="180" width="100" height="40" as="geometry" />
        </mxCell>
        <mxCell id="TCfYSCtMu1qu-9Lroh7u-57" style="edgeStyle=none;shape=link;rounded=0;orthogonalLoop=1;jettySize=auto;html=1;exitX=0;exitY=0;exitDx=0;exitDy=0;strokeColor=default;align=center;verticalAlign=middle;fontFamily=Helvetica;fontSize=11;fontColor=default;labelBackgroundColor=default;endArrow=none;endFill=0;" edge="1" parent="1" source="TCfYSCtMu1qu-9Lroh7u-52" target="TCfYSCtMu1qu-9Lroh7u-56">
          <mxGeometry relative="1" as="geometry" />
        </mxCell>
        <mxCell id="TCfYSCtMu1qu-9Lroh7u-70" style="edgeStyle=none;shape=link;rounded=0;orthogonalLoop=1;jettySize=auto;html=1;exitX=0.75;exitY=0;exitDx=0;exitDy=0;entryX=0.5;entryY=1;entryDx=0;entryDy=0;strokeColor=default;align=center;verticalAlign=middle;fontFamily=Helvetica;fontSize=11;fontColor=default;labelBackgroundColor=default;endArrow=none;endFill=0;" edge="1" parent="1" source="TCfYSCtMu1qu-9Lroh7u-52" target="TCfYSCtMu1qu-9Lroh7u-69">
          <mxGeometry relative="1" as="geometry" />
        </mxCell>
        <mxCell id="TCfYSCtMu1qu-9Lroh7u-75" style="edgeStyle=none;shape=connector;rounded=0;orthogonalLoop=1;jettySize=auto;html=1;exitX=1;exitY=0.5;exitDx=0;exitDy=0;strokeColor=default;align=center;verticalAlign=middle;fontFamily=Helvetica;fontSize=11;fontColor=default;labelBackgroundColor=default;endArrow=none;endFill=0;" edge="1" parent="1" source="TCfYSCtMu1qu-9Lroh7u-52">
          <mxGeometry relative="1" as="geometry">
            <mxPoint x="910" y="440" as="targetPoint" />
          </mxGeometry>
        </mxCell>
        <mxCell id="TCfYSCtMu1qu-9Lroh7u-52" value="Pozajmica" style="shape=ext;margin=3;double=1;whiteSpace=wrap;html=1;align=center;fontFamily=Helvetica;fontSize=11;fontColor=default;labelBackgroundColor=default;" vertex="1" parent="1">
          <mxGeometry x="670" y="413" width="100" height="40" as="geometry" />
        </mxCell>
        <mxCell id="TCfYSCtMu1qu-9Lroh7u-58" style="edgeStyle=none;shape=connector;rounded=0;orthogonalLoop=1;jettySize=auto;html=1;exitX=0;exitY=0.5;exitDx=0;exitDy=0;entryX=1;entryY=1;entryDx=0;entryDy=0;strokeColor=default;align=center;verticalAlign=middle;fontFamily=Helvetica;fontSize=11;fontColor=default;labelBackgroundColor=default;endArrow=none;endFill=0;" edge="1" parent="1" source="TCfYSCtMu1qu-9Lroh7u-56" target="TCfYSCtMu1qu-9Lroh7u-2">
          <mxGeometry relative="1" as="geometry" />
        </mxCell>
        <mxCell id="TCfYSCtMu1qu-9Lroh7u-56" value="na" style="shape=rhombus;double=1;perimeter=rhombusPerimeter;whiteSpace=wrap;html=1;align=center;fontFamily=Helvetica;fontSize=11;fontColor=default;labelBackgroundColor=default;" vertex="1" parent="1">
          <mxGeometry x="540" y="230" width="120" height="60" as="geometry" />
        </mxCell>
        <mxCell id="TCfYSCtMu1qu-9Lroh7u-59" value="1" style="text;html=1;align=center;verticalAlign=middle;resizable=0;points=[];autosize=1;strokeColor=none;fillColor=none;fontFamily=Helvetica;fontSize=11;fontColor=default;labelBackgroundColor=default;" vertex="1" parent="1">
          <mxGeometry x="525" y="225" width="30" height="30" as="geometry" />
        </mxCell>
        <mxCell id="TCfYSCtMu1qu-9Lroh7u-60" value="M" style="text;html=1;align=center;verticalAlign=middle;resizable=0;points=[];autosize=1;strokeColor=none;fillColor=none;fontFamily=Helvetica;fontSize=11;fontColor=default;labelBackgroundColor=default;" vertex="1" parent="1">
          <mxGeometry x="640" y="280" width="30" height="30" as="geometry" />
        </mxCell>
        <mxCell id="TCfYSCtMu1qu-9Lroh7u-61" value="datum_na_pozajmuvanje" style="ellipse;whiteSpace=wrap;html=1;align=center;" vertex="1" parent="1">
          <mxGeometry x="570" y="480" width="150" height="50" as="geometry" />
        </mxCell>
        <mxCell id="TCfYSCtMu1qu-9Lroh7u-62" value="datum_vrakjanje" style="ellipse;whiteSpace=wrap;html=1;align=center;" vertex="1" parent="1">
          <mxGeometry x="740" y="482.5" width="120" height="45" as="geometry" />
        </mxCell>
        <mxCell id="TCfYSCtMu1qu-9Lroh7u-67" style="edgeStyle=none;shape=connector;rounded=0;orthogonalLoop=1;jettySize=auto;html=1;exitX=0;exitY=0;exitDx=0;exitDy=0;strokeColor=default;align=center;verticalAlign=middle;fontFamily=Helvetica;fontSize=11;fontColor=default;labelBackgroundColor=default;endArrow=none;endFill=0;" edge="1" parent="1" source="TCfYSCtMu1qu-9Lroh7u-63" target="TCfYSCtMu1qu-9Lroh7u-52">
          <mxGeometry relative="1" as="geometry" />
        </mxCell>
        <mxCell id="TCfYSCtMu1qu-9Lroh7u-63" value="status" style="ellipse;whiteSpace=wrap;html=1;align=center;" vertex="1" parent="1">
          <mxGeometry x="880" y="482.5" width="85" height="30" as="geometry" />
        </mxCell>
        <mxCell id="TCfYSCtMu1qu-9Lroh7u-64" style="edgeStyle=none;shape=connector;rounded=0;orthogonalLoop=1;jettySize=auto;html=1;exitX=0.5;exitY=1;exitDx=0;exitDy=0;strokeColor=default;align=center;verticalAlign=middle;fontFamily=Helvetica;fontSize=11;fontColor=default;labelBackgroundColor=default;endArrow=none;endFill=0;" edge="1" parent="1" source="TCfYSCtMu1qu-9Lroh7u-63" target="TCfYSCtMu1qu-9Lroh7u-63">
          <mxGeometry relative="1" as="geometry" />
        </mxCell>
        <mxCell id="TCfYSCtMu1qu-9Lroh7u-65" style="edgeStyle=none;shape=connector;rounded=0;orthogonalLoop=1;jettySize=auto;html=1;exitX=0.5;exitY=0;exitDx=0;exitDy=0;entryX=0.11;entryY=0.925;entryDx=0;entryDy=0;entryPerimeter=0;strokeColor=default;align=center;verticalAlign=middle;fontFamily=Helvetica;fontSize=11;fontColor=default;labelBackgroundColor=default;endArrow=none;endFill=0;" edge="1" parent="1" source="TCfYSCtMu1qu-9Lroh7u-61" target="TCfYSCtMu1qu-9Lroh7u-52">
          <mxGeometry relative="1" as="geometry" />
        </mxCell>
        <mxCell id="TCfYSCtMu1qu-9Lroh7u-66" style="edgeStyle=none;shape=connector;rounded=0;orthogonalLoop=1;jettySize=auto;html=1;exitX=0;exitY=0;exitDx=0;exitDy=0;entryX=0.42;entryY=1.025;entryDx=0;entryDy=0;entryPerimeter=0;strokeColor=default;align=center;verticalAlign=middle;fontFamily=Helvetica;fontSize=11;fontColor=default;labelBackgroundColor=default;endArrow=none;endFill=0;" edge="1" parent="1" source="TCfYSCtMu1qu-9Lroh7u-62" target="TCfYSCtMu1qu-9Lroh7u-52">
          <mxGeometry relative="1" as="geometry" />
        </mxCell>
        <mxCell id="TCfYSCtMu1qu-9Lroh7u-71" style="edgeStyle=none;shape=link;rounded=0;orthogonalLoop=1;jettySize=auto;html=1;exitX=0.5;exitY=0;exitDx=0;exitDy=0;strokeColor=default;align=center;verticalAlign=middle;fontFamily=Helvetica;fontSize=11;fontColor=default;labelBackgroundColor=default;endArrow=none;endFill=0;" edge="1" parent="1" source="TCfYSCtMu1qu-9Lroh7u-69" target="TCfYSCtMu1qu-9Lroh7u-42">
          <mxGeometry relative="1" as="geometry" />
        </mxCell>
        <mxCell id="TCfYSCtMu1qu-9Lroh7u-69" value="napravil" style="shape=rhombus;perimeter=rhombusPerimeter;whiteSpace=wrap;html=1;align=center;fontFamily=Helvetica;fontSize=11;fontColor=default;labelBackgroundColor=default;" vertex="1" parent="1">
          <mxGeometry x="750" y="327.51000000000005" width="120" height="60" as="geometry" />
        </mxCell>
        <mxCell id="TCfYSCtMu1qu-9Lroh7u-74" value="" style="edgeStyle=none;shape=connector;rounded=0;orthogonalLoop=1;jettySize=auto;html=1;strokeColor=default;align=center;verticalAlign=middle;fontFamily=Helvetica;fontSize=11;fontColor=default;labelBackgroundColor=default;endArrow=none;endFill=0;" edge="1" parent="1" source="TCfYSCtMu1qu-9Lroh7u-72" target="TCfYSCtMu1qu-9Lroh7u-69">
          <mxGeometry relative="1" as="geometry" />
        </mxCell>
        <mxCell id="TCfYSCtMu1qu-9Lroh7u-72" value="M" style="text;html=1;align=center;verticalAlign=middle;resizable=0;points=[];autosize=1;strokeColor=none;fillColor=none;fontFamily=Helvetica;fontSize=11;fontColor=default;labelBackgroundColor=default;" vertex="1" parent="1">
          <mxGeometry x="795" y="388" width="30" height="30" as="geometry" />
        </mxCell>
        <mxCell id="TCfYSCtMu1qu-9Lroh7u-73" value="N" style="text;html=1;align=center;verticalAlign=middle;resizable=0;points=[];autosize=1;strokeColor=none;fillColor=none;fontFamily=Helvetica;fontSize=11;fontColor=default;labelBackgroundColor=default;" vertex="1" parent="1">
          <mxGeometry x="820" y="310" width="30" height="30" as="geometry" />
        </mxCell>
        <mxCell id="TCfYSCtMu1qu-9Lroh7u-77" value="&lt;span style=&quot;border-bottom: 1px dotted&quot;&gt;sifra_pozajmica&lt;/span&gt;" style="ellipse;whiteSpace=wrap;html=1;align=center;fontFamily=Helvetica;fontSize=11;fontColor=default;labelBackgroundColor=default;" vertex="1" parent="1">
          <mxGeometry x="900" y="418" width="100" height="40" as="geometry" />
        </mxCell>
      </root>
    </mxGraphModel>
  </diagram>
</mxfile>
